<svg width="200" height="200" viewBox="0 0 200 200" fill="none" xmlns="http://www.w3.org/2000/svg">
  <defs>
    <linearGradient id="logoGradient" x1="0%" y1="0%" x2="100%" y2="100%">
      <stop offset="0%" stop-color="#3B82F6" />
      <stop offset="100%" stop-color="#06B6D4" />
    </linearGradient>
  </defs>
  
  <!-- Base Circle -->
  <circle cx="100" cy="100" r="90" fill="url(#logoGradient)" />
  
  <!-- Blockchain Nodes -->
  <circle cx="100" cy="50" r="12" fill="white" />
  <circle cx="150" cy="75" r="12" fill="white" />
  <circle cx="150" cy="125" r="12" fill="white" />
  <circle cx="100" cy="150" r="12" fill="white" />
  <circle cx="50" cy="125" r="12" fill="white" />
  <circle cx="50" cy="75" r="12" fill="white" />
  
  <!-- Connecting Lines (Blockchain) -->
  <path d="M100 62L150 75" stroke="white" stroke-width="4" />
  <path d="M150 89L150 111" stroke="white" stroke-width="4" />
  <path d="M150 125L100 138" stroke="white" stroke-width="4" />
  <path d="M62 125L50 125" stroke="white" stroke-width="4" />
  <path d="M50 111L50 89" stroke="white" stroke-width="4" />
  <path d="M50 75L100 62" stroke="white" stroke-width="4" />
  
  <!-- AI Brain Center -->
  <path d="M90 90H110V110H90V90Z" fill="white" />
  <path d="M85 85H95V95H85V85Z" fill="white" />
  <path d="M105 85H115V95H105V85Z" fill="white" />
  <path d="M85 105H95V115H85V105Z" fill="white" />
  <path d="M105 105H115V115H105V105Z" fill="white" />
  
  <!-- Circuit Lines -->
  <path d="M90 80V70" stroke="white" stroke-width="2" />
  <path d="M110 80V70" stroke="white" stroke-width="2" />
  <path d="M80 90H70" stroke="white" stroke-width="2" />
  <path d="M80 110H70" stroke="white" stroke-width="2" />
  <path d="M90 120V130" stroke="white" stroke-width="2" />
  <path d="M110 120V130" stroke="white" stroke-width="2" />
  <path d="M120 90H130" stroke="white" stroke-width="2" />
  <path d="M120 110H130" stroke="white" stroke-width="2" />
  
  <!-- Text -->
  <text x="100" y="180" font-family="Arial" font-size="20" font-weight="bold" text-anchor="middle" fill="white">DOT-E HUB</text>
</svg>